PathFileType	4	(x/y/z)	S04_P20_T17.trc
DataRate	CameraRate	NumFrames	NumMarkers	Units	OrigDataRate	OrigDataStartFrame	OrigNumFrames
240	240	7	51	mm	240	278	370
Frame#	Time	Sternum			R.Acromium			L.Acromium			Top.Head			R.ASIS			L.ASIS			R.PSIS			L.PSIS			R.Great.Tro			L.Great.Tro			R.Iliac.Crest			L.Iliac.Crest			V.Sacral			R.Thigh.Upper.Post			R.Thigh.Lower.Ant			R.Thigh.Lower.Post			R.Thigh.Upper.Ant			R.Knee.Lat			R.Knee.Med			R.Shank.Upper.Post			R.Shank.Lower.Ant			R.Shank.Lower.Post			R.Shank.Upper.Ant			R.Ankle.Lat			R.Ankle.Med			R.Heel.Upper			R.Heel.Med			R.Heel.Lat			R.Toe.Lat			R.Toe.Med			R.Toe.Tip			L.Thigh.Upper.Post			L.Thigh.Lower.Ant			L.Thigh.Lower.Post			L.Thigh.Upper.Ant			L.Knee.Lat			L.Knee.Med			L.Shank.Upper.Post			L.Shank.Lower.Ant			L.Shank.Lower.Post			L.Shank.Upper.Ant			L.Ankle.Lat			L.Ankle.Med			L.Heel.Upper			L.Heel.Med			L.Heel.Lat			L.Toe.Lat			L.Toe.Med			L.Toe.Tip			Cervical.Spine			Back			
		X1	Y1	Z1	X2	Y2	Z2	X3	Y3	Z3	X4	Y4	Z4	X5	Y5	Z5	X6	Y6	Z6	X7	Y7	Z7	X8	Y8	Z8	X9	Y9	Z9	X10	Y10	Z10	X11	Y11	Z11	X12	Y12	Z12	X13	Y13	Z13	X14	Y14	Z14	X15	Y15	Z15	X16	Y16	Z16	X17	Y17	Z17	X18	Y18	Z18	X19	Y19	Z19	X20	Y20	Z20	X21	Y21	Z21	X22	Y22	Z22	X23	Y23	Z23	X24	Y24	Z24	X25	Y25	Z25	X26	Y26	Z26	X27	Y27	Z27	X28	Y28	Z28	X29	Y29	Z29	X30	Y30	Z30	X31	Y31	Z31	X32	Y32	Z32	X33	Y33	Z33	X34	Y34	Z34	X35	Y35	Z35	X36	Y36	Z36	X37	Y37	Z37	X38	Y38	Z38	X39	Y39	Z39	X40	Y40	Z40	X41	Y41	Z41	X42	Y42	Z42	X43	Y43	Z43	X44	Y44	Z44	X45	Y45	Z45	X46	Y46	Z46	X47	Y47	Z47	X48	Y48	Z48	X49	Y49	Z49	X50	Y50	Z50	X51	Y51	Z51	

278	1.1542	172.56	1275.2	262.65	58.796	1506.8	440.77	37.265	1489.1	90.513	136.79	1826.2	246.97	131.46	992.18	403.93	138.17	1018.8	155	-79.104	1021.7	297.63	-69.943	1030.4	217.42	45.419	907.24	459.83	32.611	926.71	83.522	43.313	1083.6	443.29	36.191	1093.1	106	-94.19	983.69	254.99	98.251	652.3	458.58	194.59	588.42	441.33	119.93	564.44	446.05	176.27	696.8	457.52	145.18	502.58	442.45	149.81	498.56	306.9	-50.657	383.27	420.01	-49.639	277.42	388.41	-96.656	331.36	404.9	-6.5272	331.96	411.93	-166.33	242.95	382.45	-126.96	226.39	300.87	-223.45	255.31	313.24	-231.4	223.27	283.93	-249.24	233.13	346.35	-144.73	120.52	431.2	-94.27	84.076	326.61	-45.406	62.876	387.8	63.495	686.23	97.952	162.73	609.48	107.15	90.436	602.72	113.4	131.34	692.73	88.872	147.73	517.94	123.52	146.48	508.73	246.7	68.433	334.14	123.24	140.42	249.75	130.6	76.289	256.86	132.34	133.07	325.6	121.25	119.47	99.76	148.34	122.42	111.52	242.28	43.132	69.726	194.94	49.626	46.486	230.57	47.087	40.504	168.62	231.53	42.441	131.33	261.91	54.068	246.87	318.81	65.193	197.79	2.2706	1556.7	271.41	-86.576	1297.2	257.32
279	1.1583	177.81	1276	262.68	63.879	1507.9	440.54	43.169	1490.1	90.25	142.48	1827.1	246.78	136.56	993.36	403.67	143.22	1019.5	154.71	-73.973	1022.8	297.55	-64.807	1031.4	217.33	50.805	908.48	459.75	37.272	927.43	83.461	48.283	1084.8	443.05	41.615	1094.1	105.81	-89.067	984.73	254.94	105.97	653.85	458.26	202.74	590.77	440.56	128.3	566.17	445.6	183.62	698.98	456.94	154.18	504.51	441.8	158.37	500.78	306.26	-40.016	382.27	419.59	-37.312	276.45	388.14	-85.164	329.64	404.53	4.9019	331.67	411.57	-153.38	240	382.22	-113.98	224.08	300.54	-211.05	250.99	313.02	-218.42	218.63	283.92	-236.23	228.38	346.32	-129.16	118.35	431.27	-78.335	82.575	326.62	-28.859	62.671	387.75	66.591	686.92	97.986	165.26	609.39	107.12	92.914	603.17	113.36	134.5	692.88	88.863	149.52	517.85	123.51	148.49	508.71	246.71	69.28	334.41	123.43	140.98	249.76	130.6	76.906	257.11	132.51	133.88	325.64	121.26	119.56	99.864	148.47	122.55	111.59	242.37	43.132	69.82	195.02	49.604	46.533	230.6	47.113	40.634	168.67	231.55	42.43	131.29	261.96	53.897	246.88	318.86	64.962	197.77	7.7983	1557.7	271.05	-81.252	1298.2	256.74
280	1.1625	183.06	1276.8	262.72	68.957	1508.9	440.31	49.074	1491.1	89.995	148.16	1827.9	246.62	141.65	994.55	403.4	148.27	1020.1	154.41	-68.835	1023.8	297.51	-59.671	1032.3	217.27	56.21	909.72	459.69	41.913	928.15	83.419	53.252	1085.9	442.82	47.035	1095.1	105.62	-83.938	985.76	254.93	113.64	655.4	457.97	210.79	593.1	439.76	136.6	567.91	445.17	190.93	701.13	456.33	163.08	506.41	441.14	166.76	502.98	305.6	-29.34	381.09	419.22	-24.854	275.33	387.86	-73.583	327.71	404.21	16.399	331.25	411.23	-140.24	236.8	382.04	-100.82	221.58	300.23	-198.45	246.38	312.87	-205.22	213.73	283.96	-222.99	223.33	346.34	-113.31	115.96	431.32	-62.127	80.948	326.59	-12.046	62.36	387.61	69.654	687.61	98.037	167.74	609.29	107.09	95.347	603.61	113.31	137.62	693.02	88.858	151.26	517.78	123.5	150.5	508.69	246.72	70.105	334.69	123.6	141.53	249.77	130.59	77.507	257.36	132.67	134.66	325.69	121.26	119.65	99.965	148.59	122.68	111.67	242.45	43.132	69.917	195.09	49.58	46.583	230.62	47.138	40.763	168.71	231.58	42.414	131.26	262.02	53.731	246.88	318.91	64.733	197.74	13.324	1558.6	270.7	-75.924	1299.3	256.15
281	1.1667	188.31	1277.6	262.76	74.031	1509.9	440.08	54.98	1492.1	89.747	153.84	1828.7	246.48	146.75	995.71	403.14	153.3	1020.8	154.11	-63.692	1024.9	297.49	-54.536	1033.3	217.25	61.633	910.96	459.65	46.536	928.85	83.397	58.221	1087.1	442.61	52.447	1096	105.44	-78.803	986.78	254.95	121.27	656.95	457.7	218.76	595.39	438.92	144.81	569.64	444.76	198.2	703.25	455.7	171.88	508.28	440.48	174.99	505.14	304.94	-18.63	379.73	418.91	-12.27	274.05	387.58	-61.911	325.58	403.94	27.959	330.72	410.9	-126.92	233.37	381.89	-87.484	218.89	299.94	-185.65	241.52	312.78	-191.8	208.61	284.03	-209.52	218.02	346.41	-97.195	113.38	431.35	-45.66	79.213	326.52	5.0082	61.96	387.41	72.685	688.3	98.103	170.18	609.19	107.06	97.739	604.06	113.27	140.71	693.15	88.856	152.96	517.7	123.48	152.51	508.68	246.72	70.911	334.96	123.77	142.06	249.79	130.59	78.094	257.61	132.81	135.41	325.73	121.26	119.74	100.06	148.71	122.8	111.75	242.52	43.133	70.015	195.16	49.552	46.635	230.64	47.163	40.891	168.76	231.6	42.396	131.22	262.08	53.57	246.88	318.96	64.505	197.71	18.849	1559.5	270.36	-70.592	1300.3	255.57
282	1.1708	193.56	1278.4	262.8	79.1	1510.9	439.86	60.888	1493	89.506	159.51	1829.5	246.37	151.86	996.86	402.88	158.33	1021.4	153.82	-58.543	1026	297.51	-49.402	1034.3	217.25	67.073	912.19	459.63	51.141	929.54	83.393	63.195	1088.2	442.4	57.851	1097	105.27	-73.663	987.78	255	128.85	658.49	457.46	226.65	597.64	438.05	152.94	571.35	444.37	205.43	705.34	455.05	180.57	510.12	439.81	183.06	507.24	304.28	-7.8835	378.19	418.64	0.43393	272.65	387.29	-50.149	323.28	403.71	39.578	330.08	410.6	-113.43	229.72	381.77	-73.977	216.04	299.68	-172.64	236.43	312.74	-178.15	203.29	284.14	-195.82	212.46	346.52	-80.841	110.64	431.38	-28.952	77.392	326.41	22.281	61.488	387.16	75.688	689	98.183	172.57	609.09	107.04	100.09	604.5	113.23	143.76	693.28	88.856	154.61	517.63	123.47	154.53	508.67	246.72	71.702	335.22	123.92	142.58	249.82	130.58	78.667	257.87	132.94	136.15	325.79	121.25	119.84	100.16	148.81	122.92	111.83	242.59	43.136	70.113	195.23	49.522	46.689	230.66	47.188	41.017	168.8	231.63	42.373	131.19	262.13	53.413	246.88	319.01	64.279	197.68	24.373	1560.4	270.03	-65.255	1301.3	254.99
283	1.175	198.81	1279.2	262.84	84.166	1511.8	439.64	66.797	1494	89.272	165.17	1830.3	246.28	156.98	997.99	402.61	163.35	1022	153.53	-53.389	1027	297.55	-44.269	1035.2	217.28	72.531	913.4	459.62	55.729	930.21	83.406	68.176	1089.3	442.2	63.244	1097.9	105.12	-68.519	988.77	255.08	136.39	660.01	457.24	234.44	599.83	437.15	160.99	573.04	444	212.62	707.37	454.37	189.16	511.92	439.14	190.97	509.27	303.62	2.8982	376.5	418.43	13.253	271.12	387	-38.298	320.81	403.52	51.251	329.33	410.32	-99.753	225.9	381.68	-60.297	213.04	299.44	-159.42	231.14	312.74	-164.28	197.79	284.28	-181.89	206.7	346.67	-64.261	107.77	431.39	-12.017	75.502	326.29	39.752	60.962	386.86	78.665	689.68	98.276	174.93	608.98	107.01	102.41	604.94	113.2	146.77	693.4	88.859	156.22	517.56	123.45	156.54	508.67	246.71	72.479	335.49	124.07	143.09	249.85	130.56	79.228	258.13	133.05	136.87	325.85	121.23	119.93	100.25	148.92	123.03	111.9	242.65	43.141	70.212	195.29	49.491	46.745	230.68	47.213	41.141	168.84	231.66	42.348	131.15	262.19	53.259	246.87	319.06	64.056	197.65	29.896	1561.3	269.71	-59.913	1302.3	254.41
284	1.1792	204.07	1280	262.89	89.229	1512.7	439.42	72.709	1494.9	89.043	170.82	1831	246.22	162.11	999.08	402.35	168.35	1022.6	153.25	-48.231	1028	297.62	-39.138	1036.1	217.33	78.006	914.58	459.63	60.3	930.86	83.434	73.166	1090.3	442.01	68.627	1098.8	104.97	-63.371	989.73	255.18	143.88	661.5	457.04	242.15	601.97	436.22	168.95	574.7	443.65	219.76	709.35	453.67	197.63	513.68	438.47	198.73	511.23	302.96	13.715	374.67	418.27	26.183	269.49	386.7	-26.358	318.19	403.38	62.974	328.5	410.05	-85.907	221.91	381.61	-46.445	209.91	299.22	-145.98	225.67	312.78	-150.17	192.14	284.44	-167.73	200.75	346.85	-47.468	104.79	431.4	5.1294	73.565	326.15	57.401	60.397	386.54	81.615	690.37	98.379	177.24	608.86	106.97	104.69	605.37	113.18	149.75	693.52	88.865	157.79	517.5	123.43	158.54	508.66	246.71	73.243	335.75	124.22	143.58	249.88	130.55	79.778	258.4	133.15	137.57	325.9	121.21	120.02	100.34	149.01	123.13	111.98	242.7	43.149	70.311	195.35	49.46	46.802	230.7	47.237	41.263	168.89	231.68	42.321	131.11	262.25	53.108	246.87	319.11	63.834	197.61	35.419	1562.2	269.4	-54.565	1303.3	253.83
